<svg xmlns="http://www.w3.org/2000/svg" width="100" height="150" viewBox="0 0 100 150">
  <g transform="translate(0 0)">
    <path data-name="사각형 1486" style="fill:none" d="M0 0h24v24H0z"/>
    <path data-name="패스 10324" d="M6.413 1.141Q10.2.562 14 .04v6.65c-2.528.01-5.057.048-7.587.056q-.002-2.804 0-5.605zM0 2.036c1.9-.293 3.811-.547 5.721-.786v5.515c-1.908 0-3.816.027-5.724.022zm0 5.331c1.906-.006 3.813.024 5.719.021v5.531c-1.9-.282-3.813-.529-5.721-.787zm6.4.074H14v6.634A671.821 671.821 0 0 0 6.413 13q0-2.78-.011-5.562z" transform="translate(5 4.942)" style="fill:#c4c9d4"/>
  </g>
  <g transform="translate(50 0)">
    <path data-name="사각형 1486" style="fill:none" d="M0 0h24v24H0z"/>
    <path data-name="패스 10324" d="M6.413 1.141Q10.2.562 14 .04v6.65c-2.528.01-5.057.048-7.587.056q-.002-2.804 0-5.605zM0 2.036c1.9-.293 3.811-.547 5.721-.786v5.515c-1.908 0-3.816.027-5.724.022zm0 5.331c1.906-.006 3.813.024 5.719.021v5.531c-1.9-.282-3.813-.529-5.721-.787zm6.4.074H14v6.634A671.821 671.821 0 0 0 6.413 13q0-2.78-.011-5.562z" transform="translate(5 4.942)" style="fill:#07f"/>
  </g>
  <g transform="translate(0 50)">
    <path data-name="사각형 1485" style="fill:none" d="M0 0h24v24H0z"/>
    <path data-name="패스 10316" d="M134.575 186.04a.731.731 0 0 1-.731.733h-8.471a.732.732 0 0 1-.732-.733v-7.568c2.22-.008 7.4-.008 9.934 0z" transform="translate(-117.605 -169.396)" style="fill:#c4c9d4"/>
    <path data-name="패스 10317" d="M172.311 20.477a.169.169 0 0 1-.073.227.169.169 0 0 1-.227-.073l-1.071-2.087a.169.169 0 0 1 .074-.227.169.169 0 0 1 .227.073l1.07 2.087z" transform="translate(-162.137 -15.282)" style="fill:#c4c9d4"/>
    <path data-name="패스 10318" d="M302.868 20.125a.167.167 0 0 1-.231.061.167.167 0 0 1-.061-.23l1.173-2.03a.167.167 0 0 1 .23-.062.167.167 0 0 1 .062.229l-1.173 2.031z" transform="translate(-288.794 -14.841)" style="fill:#c4c9d4"/>
    <path data-name="패스 10319" d="M401.607 178.6a1.066 1.066 0 0 1-1.067 1.066 1.067 1.067 0 0 1-1.068-1.066v-4.667a1.066 1.066 0 0 1 1.068-1.066 1.066 1.066 0 0 1 1.067 1.066z" transform="translate(-382.051 -164.012)" style="fill:#c4c9d4"/>
    <path data-name="패스 10320" d="M58.176 178.6a1.067 1.067 0 0 1-1.066 1.066 1.066 1.066 0 0 1-1.067-1.066v-4.667a1.065 1.065 0 0 1 1.067-1.066 1.066 1.066 0 0 1 1.066 1.066z" transform="translate(-51.599 -164.012)" style="fill:#c4c9d4"/>
    <path data-name="패스 10321" d="M181.078 319.918a1.067 1.067 0 0 1-1.068 1.066 1.066 1.066 0 0 1-1.065-1.066v-4.668a1.067 1.067 0 0 1 1.065-1.067 1.068 1.068 0 0 1 1.068 1.067z" transform="translate(-169.857 -299.984)" style="fill:#c4c9d4"/>
    <path data-name="패스 10322" d="M278.963 319.918a1.067 1.067 0 0 1-1.068 1.066 1.067 1.067 0 0 1-1.066-1.066v-4.668a1.068 1.068 0 0 1 1.066-1.067 1.068 1.068 0 0 1 1.068 1.067z" transform="translate(-264.041 -299.984)" style="fill:#c4c9d4"/>
    <path data-name="패스 10323" d="M128.357 46.663a5.066 5.066 0 0 0-5.016 4.512h10.032a5.064 5.064 0 0 0-5.016-4.512zm-2.263 2.737a.416.416 0 1 1 .416-.417.417.417 0 0 1-.416.417zm4.536 0a.416.416 0 1 1 .417-.417.417.417 0 0 1-.417.417z" transform="translate(-116.354 -42.574)" style="fill:#c4c9d4"/>
  </g>
  <g transform="translate(50 50)">
    <path data-name="사각형 1485" style="fill:none" d="M0 0h24v24H0z"/>
    <path data-name="패스 10316" d="M134.575 186.04a.731.731 0 0 1-.731.733h-8.471a.732.732 0 0 1-.732-.733v-7.568c2.22-.008 7.4-.008 9.934 0z" transform="translate(-117.605 -169.396)" style="fill:#07f"/>
    <path data-name="패스 10317" d="M172.311 20.477a.169.169 0 0 1-.073.227.169.169 0 0 1-.227-.073l-1.071-2.087a.169.169 0 0 1 .074-.227.169.169 0 0 1 .227.073l1.07 2.087z" transform="translate(-162.137 -15.282)" style="fill:#07f"/>
    <path data-name="패스 10318" d="M302.868 20.125a.167.167 0 0 1-.231.061.167.167 0 0 1-.061-.23l1.173-2.03a.167.167 0 0 1 .23-.062.167.167 0 0 1 .062.229l-1.173 2.031z" transform="translate(-288.794 -14.841)" style="fill:#07f"/>
    <path data-name="패스 10319" d="M401.607 178.6a1.066 1.066 0 0 1-1.067 1.066 1.067 1.067 0 0 1-1.068-1.066v-4.667a1.066 1.066 0 0 1 1.068-1.066 1.066 1.066 0 0 1 1.067 1.066z" transform="translate(-382.051 -164.012)" style="fill:#07f"/>
    <path data-name="패스 10320" d="M58.176 178.6a1.067 1.067 0 0 1-1.066 1.066 1.066 1.066 0 0 1-1.067-1.066v-4.667a1.065 1.065 0 0 1 1.067-1.066 1.066 1.066 0 0 1 1.066 1.066z" transform="translate(-51.599 -164.012)" style="fill:#07f"/>
    <path data-name="패스 10321" d="M181.078 319.918a1.067 1.067 0 0 1-1.068 1.066 1.066 1.066 0 0 1-1.065-1.066v-4.668a1.067 1.067 0 0 1 1.065-1.067 1.068 1.068 0 0 1 1.068 1.067z" transform="translate(-169.857 -299.984)" style="fill:#07f"/>
    <path data-name="패스 10322" d="M278.963 319.918a1.067 1.067 0 0 1-1.068 1.066 1.067 1.067 0 0 1-1.066-1.066v-4.668a1.068 1.068 0 0 1 1.066-1.067 1.068 1.068 0 0 1 1.068 1.067z" transform="translate(-264.041 -299.984)" style="fill:#07f"/>
    <path data-name="패스 10323" d="M128.357 46.663a5.066 5.066 0 0 0-5.016 4.512h10.032a5.064 5.064 0 0 0-5.016-4.512zm-2.263 2.737a.416.416 0 1 1 .416-.417.417.417 0 0 1-.416.417zm4.536 0a.416.416 0 1 1 .417-.417.417.417 0 0 1-.417.417z" transform="translate(-116.354 -42.574)" style="fill:#07f"/>
  </g>
  <g transform="translate(0 100)">
    <path data-name="사각형 1484" style="fill:none" d="M0 0h24v24H0z"/>
    <path data-name="패스 65" d="M17 13.205c-.59 1.71-2.354 4.738-4.172 4.771-1.206.023-1.594-.715-2.972-.715s-1.809.692-2.949.737C4.977 18.073 2 13.628 2 9.752 2 6.192 4.481 4.427 6.648 4.4c1.163-.021 2.261.784 2.969.784s2.045-.968 3.447-.826a4.206 4.206 0 0 1 3.292 1.783A3.973 3.973 0 0 0 17 13.205zM13.083 0a3.983 3.983 0 0 0-3.607 4.148C11.435 4.3 13.315 2.1 13.083 0z" transform="translate(2.5 2)" style="fill:#c4c9d4"/>
  </g>
  <g transform="translate(50 100)">
    <path data-name="사각형 1484" style="fill:none" d="M0 0h24v24H0z"/>
    <path data-name="패스 65" d="M17 13.205c-.59 1.71-2.354 4.738-4.172 4.771-1.206.023-1.594-.715-2.972-.715s-1.809.692-2.949.737C4.977 18.073 2 13.628 2 9.752 2 6.192 4.481 4.427 6.648 4.4c1.163-.021 2.261.784 2.969.784s2.045-.968 3.447-.826a4.206 4.206 0 0 1 3.292 1.783A3.973 3.973 0 0 0 17 13.205zM13.083 0a3.983 3.983 0 0 0-3.607 4.148C11.435 4.3 13.315 2.1 13.083 0z" transform="translate(2.5 2)" style="fill:#07f"/>
  </g>
</svg>